<svg xmlns="http://www.w3.org/2000/svg" viewBox="0 0 1200 900" role="img" aria-labelledby="title desc">
  <title id="title">Cadeira Gamer Ergonomica Pro</title>
  <desc id="desc">Ilustracao de uma cadeira gamer ergonomica</desc>
  <rect width="1200" height="900" fill="#111827"/>
  <path d="M530 180c90 0 160 80 160 170v145c0 48-22 92-58 122l-32 28h-65l-38-38c-30-31-47-73-47-116V350c0-94 64-170 143-170z" fill="#2563eb"/>
  <path d="M532 220c64 0 114 56 114 124v125c0 42-16 72-42 101l-12 13h-35l-18-20c-26-29-43-62-43-99V344c0-68 50-124 114-124z" fill="#1e293b"/>
  <rect x="500" y="560" width="182" height="78" rx="28" fill="#334155"/>
  <path d="M590 638v110" stroke="#64748b" stroke-width="18" stroke-linecap="round"/>
  <path d="M590 748l-130 52" stroke="#94a3b8" stroke-width="16" stroke-linecap="round"/>
  <path d="M590 748l130 52" stroke="#94a3b8" stroke-width="16" stroke-linecap="round"/>
  <path d="M590 748l0 80" stroke="#94a3b8" stroke-width="16" stroke-linecap="round"/>
  <text x="185" y="150" fill="#e2e8f0" font-size="62" font-family="Arial, sans-serif" font-weight="700">Cadeira Ergonomica Pro</text>
</svg>
