<svg xmlns="http://www.w3.org/2000/svg" viewBox="0 0 1200 900" role="img" aria-labelledby="title desc">
  <title id="title">Controle DualSense Midnight Black</title>
  <desc id="desc">Ilustracao de um controle DualSense preto</desc>
  <rect width="1200" height="900" fill="#0b1220"/>
  <path d="M325 560c-78 0-125-64-125-146 0-79 50-144 127-144 73 0 138 38 196 74h154c58-36 123-74 196-74 77 0 127 65 127 144 0 82-47 146-125 146-46 0-89-18-123-49l-85-79H533l-85 79c-34 31-77 49-123 49z" fill="#111827" stroke="#475569" stroke-width="10"/>
  <circle cx="445" cy="442" r="48" fill="#1f2937"/>
  <circle cx="755" cy="442" r="20" fill="#60a5fa"/>
  <circle cx="808" cy="408" r="20" fill="#60a5fa"/>
  <circle cx="808" cy="476" r="20" fill="#60a5fa"/>
  <circle cx="861" cy="442" r="20" fill="#60a5fa"/>
  <rect x="562" y="365" width="76" height="40" rx="18" fill="#1e293b"/>
  <rect x="580" y="428" width="40" height="76" rx="18" fill="#1e293b"/>
  <rect x="540" y="548" width="120" height="18" rx="9" fill="#2563eb"/>
  <text x="235" y="180" fill="#e2e8f0" font-size="60" font-family="Arial, sans-serif" font-weight="700">DualSense Midnight Black</text>
</svg>
